<?xml version="1.0" encoding="UTF-8"?>
<!DOCTYPE svg PUBLIC "-//W3C//DTD SVG 1.1//EN" "http://www.w3.org/Graphics/SVG/1.1/DTD/svg11.dtd">
<!-- Creator: CorelDRAW -->
<svg xmlns="http://www.w3.org/2000/svg" xml:space="preserve" width="61.1061mm" height="60.7409mm" version="1.1" style="shape-rendering:geometricPrecision; text-rendering:geometricPrecision; image-rendering:optimizeQuality; fill-rule:evenodd; clip-rule:evenodd"
viewBox="0 0 3.8001 3.7774"
 xmlns:xlink="http://www.w3.org/1999/xlink"
 xmlns:xodm="http://www.corel.com/coreldraw/odm/2003">
 <defs>
  <style type="text/css">
   <![CDATA[
    .str0 {stroke:#FEFEFE;stroke-width:0.0047;stroke-miterlimit:22.9256}
    .fil0 {fill:#FEFEFE}
    .fil2 {fill:black}
    .fil1 {fill:#FDD52C}
    .fil4 {fill:#FED62C}
    .fil3 {fill:#FF6600}
    .fil5 {fill:#FEFEFE;fill-rule:nonzero}
   ]]>
  </style>
 </defs>
 <g id="Camada_x0020_1">
  <metadata id="CorelCorpID_0Corel-Layer"/>
  <g id="_1293471264">
   <path class="fil0" d="M1.6686 2.426c0.0181,-0.0328 0.0368,-0.0653 0.0556,-0.0977 0.0367,-0.0634 0.0742,-0.1264 0.1119,-0.1891 0.0237,-0.0393 0.0472,-0.0788 0.0708,-0.1182 0.0468,-0.0781 0.0931,-0.1565 0.1389,-0.2352 0.0296,-0.0508 0.0591,-0.1018 0.0877,-0.1532 0.0038,-0.0069 0.0076,-0.0137 0.0114,-0.0206 -0.0028,-0.0004 -0.0056,-0.0007 -0.0084,-0.0011 -0.0396,-0.0052 -0.0792,-0.0106 -0.1188,-0.016 -0.0377,-0.0051 -0.0755,-0.0101 -0.1133,-0.0145 -0.0221,-0.0026 -0.0477,-0.006 -0.0699,-0.006l-0.0989 0 0.4269 -0.7559 0.0004 -0.0007c0.0655,-0.1086 0.1256,-0.2203 0.1908,-0.3291 0.017,-0.0283 0.0328,-0.0572 0.0498,-0.0854l0.1616 -0.2682 0.0326 0c0.0237,0 0.0452,-0.0006 0.0685,0.0058 0.0337,0.0093 0.0592,0.0301 0.0797,0.0579 0.0253,0.0344 0.0444,0.0792 0.0532,0.1209 0.0095,0.0449 0.0113,0.0894 -0.0021,0.1338 -0.0085,0.0283 -0.0221,0.0506 -0.0333,0.0772 -0.0064,0.0151 -0.0101,0.0303 -0.0164,0.0455l-0.0174 0.0739c0.0195,0.0174 0.0386,0.0372 0.055,0.0539 0.0263,0.0269 0.0518,0.0547 0.0783,0.0812l0.4559 0.4559c0.0576,0.0576 0.1525,0.1345 0.1465,0.2244 -0.0057,0.0844 -0.0942,0.1528 -0.1499,0.2084 -0.0764,0.0764 -0.1523,0.1534 -0.2285,0.2301 -0.135,0.136 -0.2702,0.2718 -0.4056,0.4074 -0.1312,0.1313 -0.2625,0.2624 -0.3951,0.3923 -0.0448,0.0439 -0.0897,0.0878 -0.1354,0.1308 -0.0176,0.0165 -0.0552,0.0543 -0.0766,0.0643 -0.0846,0.0397 -0.1663,-0.0213 -0.2257,-0.0769 -0.0525,-0.0492 -0.0995,-0.105 -0.1516,-0.1547 -0.0258,0.0131 -0.0521,0.025 -0.0804,0.0322l-0.0486 0.0114 -0.0474 0.011 0.0211 -0.0904c0.0062,-0.0268 0.0304,-0.0631 0.0555,-0.094l-0.0331 -0.0175c-0.0576,-0.0305 -0.0986,-0.0848 -0.1438,-0.1301l-0.7497 -0.7497c-0.0219,-0.0219 -0.0451,-0.0403 -0.0657,-0.064 -0.0299,-0.0343 -0.0508,-0.0738 -0.0508,-0.1203 0,-0.037 0.0116,-0.0697 0.0337,-0.0991 0.0148,-0.0197 0.0319,-0.0344 0.049,-0.0515l1.1347 -1.1347c0.0559,-0.0559 0.1481,-0.1706 0.2316,-0.1706 0.0222,0 0.0488,0.0068 0.0697,0.0147 0.0341,0.0128 0.0691,0.0356 0.0691,0.0769 0,0.0171 -0.0091,0.0406 -0.0149,0.0568 -0.01,0.0278 -0.0206,0.0554 -0.0313,0.083 -0.0315,0.0813 -0.0641,0.1622 -0.0968,0.2431 -0.0576,0.1425 -0.1165,0.2844 -0.1738,0.427 -0.02,0.0498 -0.0411,0.0993 -0.0618,0.1488 -0.0341,0.0817 -0.0682,0.1634 -0.102,0.2453 -0.0335,0.0811 -0.0667,0.1624 -0.0988,0.2441 -0.0105,0.0267 -0.0208,0.0534 -0.0307,0.0803 0.0162,0.0037 0.0323,0.0075 0.0484,0.0107l0.3803 0.0752 -0.0011 0.0485c-0.0009,0.0422 -0.0221,0.0792 -0.0389,0.1167 -0.0134,0.03 -0.0269,0.06 -0.0412,0.0896 -0.0138,0.0284 -0.0268,0.0574 -0.0397,0.0862 -0.0129,0.0289 -0.027,0.0575 -0.0389,0.0868l-0.0004 0.001 -0.1199 0.2657c-0.0026,0.006 -0.0073,0.0154 -0.0122,0.0256z"/>
   <g>
    <path class="fil1" d="M1.6791 2.5338c-0.0223,0.0206 -0.0743,0.0818 -0.081,0.1107 0.0378,-0.0088 0.0766,-0.0306 0.1081,-0.0473 0.1248,0.1085 0.2461,0.2951 0.3438,0.2493 0.0456,-0.0214 1.1214,-1.11 1.2249,-1.2134 0.038,-0.038 0.1291,-0.1114 0.1331,-0.1715 0.0042,-0.0623 -0.0941,-0.1442 -0.1297,-0.1798l-0.4559 -0.4559c-0.0381,-0.0381 -0.1196,-0.1286 -0.157,-0.1537l0.027 -0.1147c-0.0401,0.0407 -0.0958,0.1355 -0.134,0.1901 -0.0446,0.0636 -0.0865,0.1259 -0.1286,0.1891 -0.0518,0.0777 -0.2293,0.3166 -0.2507,0.386 0.0779,0.0171 0.3556,0.0538 0.4046,0.079 -0.0015,0.0375 -0.0501,0.0917 -0.0764,0.119 -0.0605,0.0628 -0.0252,0.0311 -0.0581,0.0699l-0.3116 0.3844c-0.0386,0.0503 -0.0774,0.0924 -0.1149,0.1418 -0.0379,0.0499 -0.0763,0.0935 -0.115,0.1416l-0.2284 0.2753z"/>
    <path class="fil2" d="M0.612 1.4559c0,0.0636 0.0644,0.1083 0.0996,0.1435l0.7497 0.7497c0.0388,0.0388 0.0828,0.0949 0.13,0.1199 0.0022,-0.0265 0.0249,-0.0633 0.0366,-0.0917l0.1197 -0.2653c0.0113,-0.0278 0.0263,-0.0588 0.0397,-0.0887 0.0121,-0.027 0.0272,-0.0606 0.0404,-0.0879 0.0132,-0.0273 0.0284,-0.0609 0.0404,-0.0879 0.015,-0.0337 0.0332,-0.0658 0.0339,-0.0945l-0.3327 -0.0658c-0.0365,-0.007 -0.0791,-0.0192 -0.1131,-0.022 0.0202,-0.0865 0.2799,-0.6965 0.3156,-0.7854 0.0468,-0.1165 0.3126,-0.7597 0.3126,-0.7883 0,-0.0157 -0.0573,-0.0338 -0.081,-0.0338 -0.055,0 -0.1546,0.1175 -0.1908,0.1537l-1.1347 1.1347c-0.0289,0.0288 -0.0659,0.0557 -0.0659,0.1098z"/>
    <path class="fil3" d="M1.6791 2.5338l0.2284 -0.2753c0.0387,-0.0481 0.0771,-0.0917 0.115,-0.1416 0.0374,-0.0494 0.0763,-0.0915 0.1149,-0.1418l0.3116 -0.3844c0.0329,-0.0388 -0.0025,-0.0071 0.0581,-0.0699 0.0263,-0.0273 0.075,-0.0815 0.0764,-0.119 -0.049,-0.0251 -0.3267,-0.0618 -0.4046,-0.079 0.0215,-0.0695 0.199,-0.3083 0.2507,-0.386 0.0421,-0.0631 0.084,-0.1254 0.1286,-0.1891 0.0382,-0.0546 0.0939,-0.1493 0.134,-0.1901 0.0075,-0.0159 0.0105,-0.0313 0.0182,-0.0495 0.0206,-0.0489 0.052,-0.0827 0.0321,-0.1766 -0.008,-0.0378 -0.0255,-0.0745 -0.0432,-0.0986 -0.0322,-0.0437 -0.0634,-0.0402 -0.1017,-0.0402l-0.1448 0.2402c-0.0184,0.0306 -0.0318,0.0553 -0.0498,0.0853 -0.0659,0.1099 -0.1252,0.2203 -0.1908,0.3292l-0.3778 0.669c0.0619,0 0.3145,0.0403 0.3985,0.0473 -0.0092,0.0396 -0.2523,0.4462 -0.2765,0.4867 -0.0242,0.0404 -0.0456,0.0763 -0.0708,0.1183 -0.0333,0.0554 -0.195,0.3252 -0.2065,0.365z"/>
   </g>
   <g>
    <path class="fil3" d="M2.747 3.0154c0.0206,-0.0244 0.0637,-0.0238 0.1007,-0.0196l0.0753 0.0209 -0.1313 0.1367 0.148 0.0301 -0.3501 0.2558c-0.016,0.0117 -0.0235,0.0035 -0.0124,-0.0098l0.1601 -0.2152 -0.1572 -0 0.1668 -0.1989z"/>
    <path class="fil4" d="M2.8477 2.9958l0.2101 0.0011 -0.1883 0.1565 0.188 0.0007 -0.4594 0.2852c-0.0188,0.0117 -0.0243,0.0035 -0.0101,-0.0098l0.216 -0.219 -0.1594 -0.0216 0.203 -0.1931z"/>
    <path class="fil3" d="M3.2665 3.0154c0.0206,-0.0244 0.0637,-0.0238 0.1007,-0.0196l0.0753 0.0209 -0.1313 0.1367 0.148 0.0301 -0.3501 0.2558c-0.016,0.0117 -0.0235,0.0035 -0.0124,-0.0098l0.1601 -0.2152 -0.1572 -0 0.1668 -0.1989z"/>
    <path class="fil4" d="M3.3672 2.9958l0.2101 0.0011 -0.1883 0.1565 0.188 0.0007 -0.4594 0.2852c-0.0188,0.0117 -0.0243,0.0035 -0.0101,-0.0098l0.216 -0.219 -0.1594 -0.0216 0.203 -0.1931z"/>
   </g>
   <path class="fil5" d="M0.3692 3.2705c0,-0.0257 0.0041,-0.0328 0.0222,-0.0345 0.017,-0.0018 0.0263,-0.0029 0.0263,-0.014 0,-0.0123 -0.0129,-0.0129 -0.0216,-0.0129 -0.0146,0 -0.0421,0.0023 -0.0831,0.0023 -0.045,0 -0.0573,-0.0023 -0.0772,-0.0023 -0.0076,0 -0.024,0 -0.024,0.0135 0,0.0111 0.0105,0.0129 0.0246,0.014 0.0316,0.0006 0.0363,0.007 0.0363,0.0369l0 0.0532c0,0.0129 -0.0006,0.0252 -0.0076,0.0322 -0.0099,0.0082 -0.0263,0.0111 -0.0433,0.0111 -0.0761,0 -0.1117,-0.0901 -0.1117,-0.1667 0,-0.0883 0.0404,-0.1562 0.1123,-0.1562 0.0427,0 0.0638,0.0246 0.0755,0.0421 0.0193,0.0246 0.0246,0.0351 0.0392,0.0351 0.0164,0 0.0199,-0.0111 0.0187,-0.0216 -0.0012,-0.0152 -0.0018,-0.0304 -0.0035,-0.045 0,-0.0117 -0.0006,-0.0199 -0.014,-0.0246 -0.0304,-0.0082 -0.0638,-0.0146 -0.0995,-0.0146 -0.1041,0 -0.2387,0.0649 -0.2387,0.1972 0,0.0568 0.0404,0.1843 0.2159,0.1843 0.0579,0 0.1041,-0.014 0.1351,-0.0293 0.0146,-0.0059 0.0187,-0.0082 0.0187,-0.0175 0.0006,-0.0029 -0.0006,-0.0135 -0.0006,-0.0181l0 -0.0644zm0.1065 0.041c0,0.0491 0,0.0579 -0.0287,0.0603 -0.0099,0.0012 -0.0181,0.0018 -0.0181,0.0117 0,0.0094 0.0082,0.0094 0.0129,0.0094 0.014,0 0.038,-0.0018 0.0743,-0.0018 0.038,0 0.0679,0.0018 0.0837,0.0018 0.0094,0 0.0187,-0.0006 0.0187,-0.0094 0,-0.0099 -0.0111,-0.0105 -0.024,-0.0117 -0.0298,-0.0018 -0.031,-0.0152 -0.031,-0.041l0 -0.0831c0,-0.017 0,-0.031 0.007,-0.0445 0.0047,-0.0105 0.0117,-0.0199 0.0234,-0.0199 0.0064,0 0.014,0.0064 0.0216,0.014 0.0088,0.0076 0.017,0.0146 0.0304,0.0146 0.0211,0 0.0398,-0.0176 0.0398,-0.0427 0,-0.024 -0.0181,-0.0433 -0.045,-0.0433 -0.0281,0 -0.048,0.0193 -0.0573,0.0287 -0.0064,0.0064 -0.0146,0.0158 -0.017,0.0158 -0.0029,0 -0.0029,-0.0035 -0.0029,-0.0099l0 -0.0252c0,-0.0076 0,-0.0158 -0.0099,-0.0158 -0.0059,0 -0.0076,0.0023 -0.0222,0.014 -0.0187,0.0158 -0.0497,0.0263 -0.0679,0.0298 -0.0252,0.0041 -0.0293,0.0047 -0.0293,0.0135 0,0.0088 0.0053,0.0094 0.0205,0.0123 0.0199,0.0029 0.0211,0.0129 0.0211,0.0433l0 0.079zm0.3458 -0.1615c0,-0.0099 0.0006,-0.0164 -0.0082,-0.0164 -0.0158,0 -0.0328,0.0018 -0.0486,0.0018 -0.0187,0 -0.0415,-0.0018 -0.0597,-0.0018 -0.007,0 -0.0129,0.0012 -0.0129,0.0094 0,0.0088 0.0076,0.0099 0.0164,0.0117 0.024,0.0035 0.0246,0.0135 0.0246,0.0404l0 0.1012c0,0.0222 0,0.0538 0.0187,0.0755 0.014,0.0175 0.0351,0.0281 0.0661,0.0281 0.0392,0 0.0661,-0.0199 0.0831,-0.0333 0.0041,-0.0035 0.0082,-0.0064 0.0105,-0.0064 0.0041,0 0.0047,0.0041 0.0047,0.0105l0 0.0176c0,0.0058 0.0023,0.0111 0.007,0.0111 0.0029,0 0.0076,-0.0018 0.0129,-0.0029 0.0187,-0.0082 0.0515,-0.0164 0.0649,-0.0199 0.0334,-0.0053 0.045,-0.0064 0.045,-0.0164 0,-0.0094 -0.0111,-0.0094 -0.0205,-0.0094 -0.0222,0 -0.0228,-0.0076 -0.0228,-0.0328l0 -0.1527c0,-0.0047 0.0006,-0.0146 0.0006,-0.0199 0,-0.0094 -0.0023,-0.0117 -0.0099,-0.0117 -0.0152,0 -0.031,0.0018 -0.0468,0.0018 -0.017,0 -0.0345,-0.0018 -0.0521,-0.0018 -0.01,0 -0.0164,0.0023 -0.0164,0.0111 0,0.0094 0.0082,0.0105 0.017,0.0111 0.0181,0.0018 0.0193,0.0152 0.0193,0.0404l0 0.1059c0,0.017 0,0.0216 -0.0053,0.0281 -0.0117,0.014 -0.0257,0.0193 -0.0427,0.0193 -0.0439,0 -0.045,-0.0357 -0.045,-0.0608l0 -0.1387zm0.3674 0.2504c0,-0.0094 0,-0.0135 0.0047,-0.0135 0.0023,0 0.0058,0.0012 0.0146,0.0035 0.0152,0.0047 0.0369,0.0094 0.055,0.0094 0.0749,0 0.1363,-0.0562 0.1363,-0.1404 0,-0.0883 -0.0649,-0.1351 -0.1158,-0.1351 -0.0257,0 -0.0497,0.0099 -0.0673,0.0205 -0.0094,0.0053 -0.0222,0.0146 -0.0246,0.0146 -0.0029,0 -0.0029,-0.0023 -0.0029,-0.0088l0 -0.0193c0,-0.0059 -0.0012,-0.0117 -0.0088,-0.0117 -0.0047,0 -0.007,0.0023 -0.0199,0.0111 -0.0287,0.0216 -0.062,0.0298 -0.0866,0.0333 -0.0164,0.0029 -0.0211,0.0059 -0.0211,0.0129 0,0.0088 0.0059,0.0094 0.0228,0.0111 0.024,0.0023 0.0252,0.0146 0.0252,0.0427l0 0.2094c0,0.0509 0,0.0579 -0.0281,0.0603 -0.0099,0.0012 -0.0187,0.0018 -0.0187,0.0117 0,0.0094 0.0082,0.0099 0.0129,0.0099 0.0158,0 0.0538,-0.0023 0.0813,-0.0023 0.0263,0 0.0597,0.0023 0.0755,0.0023 0.0041,0 0.0123,-0.0006 0.0123,-0.0099 0,-0.0099 -0.0088,-0.0105 -0.0187,-0.0117 -0.0269,-0.0023 -0.0281,-0.0135 -0.0281,-0.041l0 -0.0591zm0.117 -0.1252c0,0.0521 -0.024,0.0936 -0.0714,0.0936 -0.0164,0 -0.0293,-0.0064 -0.0363,-0.0152 -0.0088,-0.0099 -0.0094,-0.0234 -0.0094,-0.0351l0 -0.1053c0,-0.0082 0.0006,-0.0181 0.0053,-0.0257 0.0076,-0.0117 0.0216,-0.017 0.0386,-0.017 0.0404,0 0.0731,0.0433 0.0731,0.1041l0 0.0006zm0.2832 0.1246c0.0995,0 0.1562,-0.0696 0.1562,-0.1392 0,-0.0562 -0.0433,-0.1357 -0.1574,-0.1357 -0.0919,0 -0.1539,0.0685 -0.1539,0.1392 0,0.0708 0.0614,0.1357 0.1545,0.1357l0.0006 0zm0.0047 -0.0257c-0.038,0 -0.0673,-0.0509 -0.0673,-0.1234 0,-0.0679 0.0275,-0.1 0.0614,-0.1 0.0427,0 0.0649,0.0579 0.0649,0.1217 0,0.0298 -0.0135,0.1018 -0.0585,0.1018l-0.0006 0zm0.4534 -0.124l0.0012 0 0.0562 0.1299c0.0041,0.01 0.0088,0.0199 0.0211,0.0199 0.014,0 0.0181,-0.0123 0.0234,-0.0252l0.1246 -0.289c0.0094,-0.0211 0.0117,-0.0316 0.0333,-0.0351 0.0111,-0.0018 0.0193,-0.0018 0.0193,-0.0129 0,-0.0082 -0.0105,-0.0111 -0.0199,-0.0111 -0.0129,0 -0.0269,0.0023 -0.041,0.0023 -0.014,0 -0.0275,-0.0023 -0.0398,-0.0023 -0.0076,0 -0.017,0.0029 -0.017,0.0117 0,0.0099 0.0076,0.0105 0.0164,0.0111 0.01,0.0012 0.0187,0.007 0.0187,0.0199 0,0.0129 -0.0094,0.0351 -0.0146,0.048l-0.0556 0.1281c-0.0035,0.0088 -0.0111,0.0275 -0.014,0.0275 -0.0029,0 -0.0111,-0.0187 -0.0146,-0.0275l-0.0351 -0.0749c-0.0035,-0.0076 -0.0064,-0.0129 -0.0064,-0.0187 0,-0.0076 0.0105,-0.0257 0.0158,-0.0345l0.0199 -0.0328c0.0088,-0.014 0.0175,-0.0322 0.0345,-0.0351 0.007,-0.0006 0.0135,-0.0035 0.0135,-0.0111 0,-0.0117 -0.0094,-0.0117 -0.0193,-0.0117 -0.031,0 -0.0673,0.0023 -0.1024,0.0023 -0.041,0 -0.0766,-0.0023 -0.1129,-0.0023 -0.0088,0 -0.0193,0 -0.0193,0.0105 0,0.0094 0.0041,0.0117 0.0123,0.0123 0.0076,0.0012 0.0158,0.0053 0.024,0.0246l0.0521 0.1199c0.0041,0.0082 0.0088,0.0181 0.0088,0.0234 0,0.0053 -0.0023,0.01 -0.0064,0.0181l-0.0193 0.0328c-0.0047,0.0076 -0.0088,0.0111 -0.0105,0.0111 -0.0047,0 -0.0099,-0.014 -0.0146,-0.0234l-0.0761 -0.172c-0.0035,-0.0082 -0.0076,-0.0181 -0.0076,-0.0234 0,-0.0082 0.0047,-0.0099 0.0111,-0.0111 0.0076,-0.0006 0.014,-0.0018 0.014,-0.0111 0,-0.0105 -0.0117,-0.0117 -0.0199,-0.0117 -0.0193,0 -0.038,0.0023 -0.0614,0.0023 -0.0234,0 -0.0486,-0.0023 -0.072,-0.0023 -0.0082,0 -0.0205,-0.0006 -0.0205,0.0105 0,0.0117 0.0094,0.0117 0.0205,0.0123 0.0181,0.0023 0.0263,0.0187 0.0304,0.0287l0.1346 0.2984c0.0041,0.0094 0.01,0.0234 0.0222,0.0234 0.0123,0 0.0181,-0.0123 0.0246,-0.0246l0.0679 -0.1252zm0.014 -0.1878c-0.0006,-0.0111 0.0129,-0.0123 0.0263,-0.0123 0.0146,0 0.0252,0.0012 0.0252,0.0123 0,0.007 -0.0059,0.0246 -0.0105,0.0339 -0.0047,0.0094 -0.0099,0.0234 -0.0146,0.0234 -0.0041,0 -0.007,-0.0082 -0.0129,-0.0211 -0.0076,-0.0164 -0.0135,-0.0281 -0.0135,-0.0357l0 -0.0006zm0.3791 0.1521c0,0.0146 0,0.0164 -0.0216,0.0263 -0.0175,0.0082 -0.0328,0.0152 -0.0474,0.0216 -0.0486,0.0228 -0.0807,0.0421 -0.0807,0.0813 0,0.0322 0.024,0.0562 0.062,0.0562 0.024,0 0.045,-0.0088 0.0638,-0.0187 0.0123,-0.0076 0.0263,-0.0181 0.0293,-0.0181 0.0023,0 0.0053,0.0035 0.0094,0.0076 0.0135,0.0129 0.024,0.0281 0.0468,0.0281 0.031,0 0.0755,-0.0257 0.0755,-0.0474 0,-0.0082 -0.0006,-0.014 -0.0041,-0.014 -0.0035,0 -0.007,0.0035 -0.0105,0.0064 -0.0047,0.0041 -0.0105,0.007 -0.017,0.007 -0.0152,0 -0.0175,-0.017 -0.0175,-0.0339l0 -0.1193c0,-0.031 0,-0.0427 -0.0123,-0.0527 -0.0205,-0.0152 -0.0585,-0.0205 -0.0819,-0.0205 -0.0989,0 -0.1422,0.0538 -0.1422,0.0819 0,0.0105 0.007,0.0193 0.0199,0.0193 0.0082,0 0.0176,-0.0029 0.0246,-0.0053 0.0158,-0.0053 0.0257,-0.0164 0.0328,-0.0298 0.0117,-0.024 0.0228,-0.0398 0.0462,-0.0398 0.0234,0 0.0252,0.0193 0.0252,0.0363l0 0.0275zm-0.0679 0.1094c0,-0.0187 0.0123,-0.031 0.0246,-0.0398 0.0105,-0.0076 0.0211,-0.014 0.0304,-0.0181 0.0041,-0.0018 0.007,-0.0035 0.0105,-0.0035 0.0023,0 0.0023,0.0047 0.0023,0.0117l0 0.0333c0,0.0094 0,0.0187 -0.007,0.0293 -0.007,0.0105 -0.0181,0.0187 -0.0328,0.0187 -0.0164,0 -0.0281,-0.0117 -0.0281,-0.031l0 -0.0006zm1.1917 -0.11c0,0.045 0.0486,0.0632 0.0842,0.0778 0.0316,0.0135 0.0527,0.024 0.0527,0.0491 0,0.0275 -0.0246,0.0398 -0.048,0.0398 -0.0328,0 -0.048,-0.0257 -0.0544,-0.041 -0.0094,-0.0216 -0.0117,-0.0333 -0.0252,-0.0333 -0.0146,0 -0.0158,0.0123 -0.0158,0.0193 0,0.0129 -0.0006,0.0257 -0.0006,0.0386 0,0.0053 0.0012,0.0105 0.0035,0.014 0.0023,0.0041 0.0053,0.007 0.0099,0.0094 0.0252,0.0152 0.0737,0.0181 0.0866,0.0181 0.0755,0 0.1375,-0.0433 0.1375,-0.0983 0,-0.0486 -0.0445,-0.0667 -0.0766,-0.0784 -0.0357,-0.014 -0.0585,-0.0211 -0.0585,-0.0445 0,-0.0187 0.0205,-0.0304 0.0386,-0.0304 0.014,0 0.0322,0.0047 0.0439,0.0222 0.0117,0.0164 0.014,0.0263 0.0246,0.0263 0.0123,0 0.014,-0.0099 0.014,-0.0164l0 -0.0158 0 -0.0187c0,-0.0059 0,-0.0111 -0.0076,-0.0129 -0.0088,-0.0029 -0.0538,-0.0082 -0.0802,-0.0082 -0.0895,0 -0.1287,0.0433 -0.1287,0.0825l0 0.0006z"/>
   <path class="fil5 str0" d="M2.0224 3.522l0.0055 0.0821 -0.0055 0c-0.0074,-0.0246 -0.0178,-0.0423 -0.0315,-0.0531 -0.0136,-0.0108 -0.0299,-0.0162 -0.049,-0.0162 -0.0159,0 -0.0304,0.0041 -0.0433,0.0122 -0.0129,0.0082 -0.0231,0.0211 -0.0305,0.039 -0.0074,0.0178 -0.0111,0.04 -0.0111,0.0666 0,0.0219 0.0035,0.0409 0.0105,0.0569 0.007,0.0161 0.0175,0.0284 0.0315,0.0369 0.0141,0.0086 0.0301,0.0128 0.048,0.0128 0.0156,0 0.0294,-0.0033 0.0414,-0.01 0.012,-0.0067 0.0251,-0.02 0.0394,-0.04l0.0055 0.0037c-0.0121,0.0215 -0.0262,0.0372 -0.0423,0.0472 -0.0161,0.0099 -0.0353,0.0149 -0.0574,0.0149 -0.04,0 -0.0709,-0.0148 -0.0928,-0.0446 -0.0164,-0.0221 -0.0246,-0.0482 -0.0246,-0.0781 0,-0.0242 0.0054,-0.0464 0.0162,-0.0666 0.0108,-0.0203 0.0256,-0.0359 0.0445,-0.047 0.0189,-0.0111 0.0395,-0.0167 0.0619,-0.0167 0.0174,0 0.0346,0.0043 0.0515,0.0128 0.0049,0.0026 0.0085,0.004 0.0106,0.004 0.0032,0 0.006,-0.0012 0.0083,-0.0034 0.0031,-0.0032 0.0053,-0.0077 0.0066,-0.0134l0.0066 0zm0.1155 0.0792c0.0248,0 0.0446,0.0094 0.0596,0.0282 0.0127,0.016 0.0191,0.0344 0.0191,0.0552 0,0.0146 -0.0035,0.0294 -0.0105,0.0444 -0.007,0.015 -0.0167,0.0263 -0.029,0.0339 -0.0124,0.0076 -0.026,0.0114 -0.0411,0.0114 -0.0246,0 -0.0442,-0.0098 -0.0587,-0.0294 -0.0122,-0.0165 -0.0184,-0.035 -0.0184,-0.0556 0,-0.015 0.0037,-0.0299 0.0111,-0.0447 0.0074,-0.0148 0.0172,-0.0257 0.0294,-0.0328 0.0121,-0.0071 0.0249,-0.0106 0.0385,-0.0106zm-0.0055 0.0117c-0.0063,0 -0.0126,0.0019 -0.019,0.0056 -0.0063,0.0038 -0.0115,0.0103 -0.0154,0.0197 -0.004,0.0094 -0.0059,0.0214 -0.0059,0.0361 0,0.0237 0.0048,0.0442 0.0142,0.0614 0.0094,0.0172 0.0219,0.0258 0.0374,0.0258 0.0115,0 0.021,-0.0047 0.0285,-0.0142 0.0075,-0.0095 0.0113,-0.0258 0.0113,-0.0489 0,-0.029 -0.0063,-0.0517 -0.0187,-0.0683 -0.0084,-0.0114 -0.0192,-0.0171 -0.0322,-0.0171zm0.1565 0.0232c0.0118,-0.0119 0.0188,-0.0188 0.0209,-0.0206 0.0053,-0.0045 0.011,-0.008 0.0172,-0.0105 0.0061,-0.0025 0.0122,-0.0038 0.0183,-0.0038 0.0102,0 0.0189,0.003 0.0263,0.0089 0.0073,0.006 0.0122,0.0146 0.0147,0.026 0.0123,-0.0144 0.0226,-0.0237 0.0311,-0.0282 0.0085,-0.0044 0.0172,-0.0067 0.0261,-0.0067 0.0086,0 0.0164,0.0023 0.0231,0.0067 0.0067,0.0044 0.012,0.0117 0.0159,0.0219 0.0026,0.0069 0.004,0.0177 0.004,0.0325l0 0.0703c0,0.0102 0.0007,0.0172 0.0023,0.0209 0.0012,0.0025 0.0033,0.0048 0.0064,0.0066 0.0032,0.0018 0.0083,0.0027 0.0154,0.0027l0 0.0066 -0.0799 0 0 -0.0066 0.0034 0c0.0069,0 0.0124,-0.0013 0.0163,-0.0041 0.0027,-0.0019 0.0047,-0.0049 0.0058,-0.0091 0.0005,-0.002 0.0007,-0.0077 0.0007,-0.0172l0 -0.0703c0,-0.0133 -0.0016,-0.0227 -0.0048,-0.0282 -0.0047,-0.0076 -0.0121,-0.0114 -0.0224,-0.0114 -0.0063,0 -0.0127,0.0016 -0.019,0.0047 -0.0063,0.0031 -0.014,0.009 -0.0231,0.0175l-0.0004 0.002 0.0007 0.0077 0 0.0779c0,0.0111 0.0006,0.018 0.0018,0.0207 0.0013,0.0027 0.0036,0.005 0.007,0.0068 0.0034,0.0018 0.0092,0.0027 0.0175,0.0027l0 0.0066 -0.0821 0 0 -0.0066c0.0089,0 0.0151,-0.001 0.0184,-0.0032 0.0033,-0.0021 0.0057,-0.0053 0.0069,-0.0096 0.0006,-0.002 0.0009,-0.0078 0.0009,-0.0175l0 -0.0703c0,-0.0133 -0.0019,-0.0229 -0.0058,-0.0288 -0.0052,-0.0077 -0.0125,-0.0115 -0.0218,-0.0115 -0.0064,0 -0.0127,0.0018 -0.019,0.0052 -0.0098,0.0052 -0.0174,0.0112 -0.0227,0.0178l0 0.0876c0,0.0106 0.0007,0.0175 0.0022,0.0207 0.0015,0.0032 0.0037,0.0055 0.0066,0.0072 0.0029,0.0016 0.0087,0.0024 0.0175,0.0024l0 0.0066 -0.0807 0 0 -0.0066c0.0075,0 0.0127,-0.0008 0.0157,-0.0024 0.003,-0.0016 0.0052,-0.0041 0.0068,-0.0077 0.0015,-0.0035 0.0023,-0.0102 0.0023,-0.0203l0 -0.0624c0,-0.0179 -0.0006,-0.0294 -0.0016,-0.0347 -0.0009,-0.004 -0.0021,-0.0066 -0.004,-0.0081 -0.0018,-0.0015 -0.0042,-0.0023 -0.0072,-0.0023 -0.0033,0 -0.0073,0.0009 -0.0119,0.0027l-0.0027 -0.0066 0.0493 -0.0201 0.0077 0 0 0.0349zm0.2799 -0.0017c0.0158,-0.0221 0.0328,-0.0332 0.0511,-0.0332 0.0167,0 0.0313,0.0072 0.0438,0.0215 0.0125,0.0143 0.0187,0.0339 0.0187,0.0587 0,0.029 -0.0096,0.0523 -0.0288,0.07 -0.0165,0.0152 -0.035,0.0228 -0.0553,0.0228 -0.0095,0 -0.0191,-0.0017 -0.0289,-0.0052 -0.0099,-0.0035 -0.0198,-0.0087 -0.0301,-0.0156l0 -0.1686c0,-0.0185 -0.0004,-0.0299 -0.0013,-0.0341 -0.0009,-0.0043 -0.0023,-0.0072 -0.0042,-0.0088 -0.0019,-0.0015 -0.0043,-0.0023 -0.0072,-0.0023 -0.0033,0 -0.0075,0.001 -0.0125,0.0029l-0.0025 -0.0066 0.0493 -0.0201 0.008 0 0 0.1186zm0 0.0113l0 0.0974c0.0061,0.0059 0.0124,0.0104 0.0188,0.0134 0.0065,0.003 0.0131,0.0045 0.0199,0.0045 0.0108,0 0.0209,-0.0059 0.0302,-0.0178 0.0093,-0.0119 0.014,-0.0291 0.014,-0.0517 0,-0.0209 -0.0047,-0.0369 -0.014,-0.0481 -0.0093,-0.0112 -0.0199,-0.0168 -0.0318,-0.0168 -0.0063,0 -0.0126,0.0016 -0.0189,0.0048 -0.0047,0.0024 -0.0108,0.0071 -0.0182,0.0142zm0.2811 -0.0398l0 0.0993c0,0.0186 0.0004,0.03 0.0013,0.0342 0.0009,0.0041 0.0023,0.0071 0.0043,0.0087 0.0019,0.0016 0.0043,0.0025 0.0069,0.0025 0.0037,0 0.0078,-0.001 0.0124,-0.003l0.0025 0.0066 -0.0489 0.0201 -0.008 0 0 -0.0343c-0.014,0.0151 -0.0247,0.0245 -0.0321,0.0284 -0.0074,0.0039 -0.0151,0.0058 -0.0234,0.0058 -0.0091,0 -0.017,-0.0026 -0.0238,-0.0079 -0.0067,-0.0053 -0.0114,-0.0121 -0.014,-0.0204 -0.0026,-0.0083 -0.0039,-0.0201 -0.0039,-0.0353l0 -0.0729c0,-0.0077 -0.0009,-0.0131 -0.0025,-0.0161 -0.0017,-0.003 -0.0041,-0.0053 -0.0074,-0.0069 -0.0033,-0.0016 -0.0092,-0.0024 -0.0178,-0.0023l0 -0.0066 0.0573 0 0 0.1096c0,0.0153 0.0026,0.0252 0.0079,0.03 0.0053,0.0048 0.0117,0.0072 0.0192,0.0072 0.0051,0 0.0109,-0.0016 0.0174,-0.0048 0.0064,-0.0032 0.0142,-0.0094 0.0231,-0.0184l0 -0.0925c0,-0.0094 -0.0017,-0.0158 -0.0051,-0.0191 -0.0034,-0.0033 -0.0105,-0.0051 -0.0212,-0.0054l0 -0.0066 0.0559 0zm0.1446 -0.0047l0 0.0555 -0.0058 0c-0.0045,-0.0174 -0.0103,-0.0292 -0.0173,-0.0355 -0.007,-0.0063 -0.016,-0.0094 -0.0269,-0.0094 -0.0083,0 -0.015,0.0022 -0.0201,0.0066 -0.005,0.0044 -0.0076,0.0092 -0.0076,0.0146 0,0.0066 0.0019,0.0124 0.0056,0.0171 0.0037,0.0049 0.0111,0.01 0.0224,0.0155l0.026 0.0126c0.0241,0.0118 0.0361,0.0273 0.0361,0.0465 0,0.0148 -0.0056,0.0268 -0.0169,0.0359 -0.0112,0.0091 -0.0238,0.0136 -0.0377,0.0136 -0.01,0 -0.0214,-0.0018 -0.0342,-0.0052 -0.004,-0.0012 -0.0072,-0.0017 -0.0097,-0.0017 -0.0027,0 -0.0049,0.0015 -0.0064,0.0044l-0.0058 0 0 -0.0584 0.0058 0c0.0033,0.0167 0.0097,0.0293 0.0191,0.0377 0.0094,0.0085 0.0199,0.0127 0.0316,0.0127 0.0082,0 0.0148,-0.0024 0.02,-0.0072 0.0052,-0.0048 0.0078,-0.0106 0.0078,-0.0174 0,-0.0082 -0.0029,-0.015 -0.0087,-0.0206 -0.0058,-0.0056 -0.0173,-0.0126 -0.0346,-0.0211 -0.0172,-0.0085 -0.0285,-0.0162 -0.0338,-0.0231 -0.0053,-0.0068 -0.008,-0.0153 -0.008,-0.0257 0,-0.0134 0.0046,-0.0247 0.0138,-0.0338 0.0092,-0.0091 0.0211,-0.0136 0.0357,-0.0136 0.0064,0 0.0142,0.0014 0.0234,0.0042 0.006,0.0018 0.01,0.0027 0.012,0.0027 0.0019,0 0.0034,-0.0004 0.0045,-0.0013 0.001,-0.0009 0.0023,-0.0027 0.0037,-0.0057l0.0058 0zm0.0844 -0.0489l0 0.0537 0.0381 0 0 0.012 -0.0381 0.0004 0 0.1059c0,0.0106 0.0015,0.0178 0.0046,0.0214 0.003,0.0037 0.0069,0.0055 0.0116,0.0055 0.004,0 0.0077,-0.0012 0.0114,-0.0037 0.0037,-0.0024 0.0065,-0.0061 0.0085,-0.0109l0.0069 0c-0.0041,0.0117 -0.01,0.0206 -0.0176,0.0265 -0.0077,0.0059 -0.0155,0.0089 -0.0236,0.0089 -0.0055,0 -0.0108,-0.0015 -0.0161,-0.0046 -0.0052,-0.003 -0.0091,-0.0074 -0.0116,-0.0131 -0.0025,-0.0057 -0.0038,-0.0144 -0.0038,-0.0262l0 -0.1102 -0.0259 0 0 -0.0057c0.0066,-0.0026 0.0133,-0.007 0.0201,-0.0131 0.0069,-0.0062 0.013,-0.0136 0.0184,-0.0221 0.0027,-0.0045 0.0066,-0.0128 0.0115,-0.0248l0.0055 0zm0.1102 0.0489l0 0.1314c0,0.0102 0.0008,0.0169 0.0023,0.0203 0.0015,0.0034 0.0038,0.0059 0.0066,0.0075 0.0029,0.0016 0.0082,0.0025 0.0159,0.0025l0 0.0066 -0.0792 0 0 -0.0066c0.0079,0 0.0133,-0.0008 0.0159,-0.0023 0.0027,-0.0015 0.0049,-0.0041 0.0065,-0.0076 0.0016,-0.0035 0.0024,-0.0103 0.0024,-0.0204l0 -0.0632c0,-0.0176 -0.0005,-0.029 -0.0016,-0.0342 -0.0009,-0.0038 -0.0021,-0.0064 -0.004,-0.0078 -0.0018,-0.0015 -0.0042,-0.0023 -0.0072,-0.0023 -0.0033,0 -0.0074,0.0009 -0.0121,0.0027l-0.0025 -0.0066 0.0493 -0.0201 0.0077 0zm0.0266 -0.0792l-0.0524 0.0613 -0.006 0 0.0186 -0.0613 0.0398 0zm0.01 0.084l0.0766 0 0 0.0066 -0.005 0c-0.0046,0 -0.0082,0.0012 -0.0106,0.0034 -0.0025,0.0023 -0.0037,0.0053 -0.0037,0.0091 0,0.0041 0.0013,0.0091 0.0038,0.0148l0.0381 0.0902 0.0381 -0.0936c0.0027,-0.0067 0.0041,-0.0117 0.0041,-0.0151 0,-0.0017 -0.0004,-0.003 -0.0014,-0.0041 -0.0013,-0.0018 -0.003,-0.003 -0.005,-0.0037 -0.002,-0.0007 -0.0061,-0.001 -0.0123,-0.001l0 -0.0066 0.0531 0 0 0.0066c-0.0062,0.0005 -0.0105,0.0018 -0.0128,0.0038 -0.0042,0.0036 -0.0079,0.0096 -0.0112,0.018l-0.0574 0.1399 -0.0076 0 -0.0582 -0.1376c-0.0026,-0.0065 -0.0051,-0.0111 -0.0075,-0.0139 -0.0024,-0.0028 -0.0054,-0.0052 -0.0091,-0.0071 -0.002,-0.0011 -0.006,-0.0021 -0.0119,-0.003l0 -0.0066zm0.2181 0.0617c-0.0001,0.0242 0.0058,0.0431 0.0176,0.0568 0.0119,0.0137 0.0259,0.0206 0.0419,0.0206 0.0106,0 0.02,-0.0029 0.0279,-0.0088 0.0079,-0.0058 0.0145,-0.0159 0.0199,-0.0303l0.0055 0.0036c-0.0025,0.0164 -0.0097,0.0313 -0.0217,0.0447 -0.012,0.0133 -0.027,0.02 -0.045,0.02 -0.0196,0 -0.0364,-0.0076 -0.0503,-0.0229 -0.0139,-0.0153 -0.0209,-0.0358 -0.0209,-0.0615 0,-0.0279 0.0072,-0.0496 0.0215,-0.0652 0.0143,-0.0156 0.0323,-0.0234 0.0538,-0.0234 0.0182,0 0.0333,0.006 0.045,0.0181 0.0117,0.012 0.0176,0.0282 0.0176,0.0484l-0.1128 0zm0 -0.0102l0.0756 0c-0.0006,-0.0105 -0.0018,-0.0178 -0.0037,-0.0221 -0.003,-0.0066 -0.0074,-0.0119 -0.0133,-0.0156 -0.0058,-0.0038 -0.012,-0.0057 -0.0184,-0.0057 -0.0099,0 -0.0187,0.0038 -0.0265,0.0115 -0.0078,0.0077 -0.0123,0.0183 -0.0136,0.0319zm0.1766 -0.1416c0.0049,0 0.0092,0.0018 0.0127,0.0052 0.0035,0.0035 0.0052,0.0078 0.0052,0.0127 0,0.005 -0.0018,0.0093 -0.0052,0.0128 -0.0035,0.0036 -0.0078,0.0054 -0.0127,0.0054 -0.005,0 -0.0093,-0.0018 -0.0128,-0.0054 -0.0036,-0.0035 -0.0054,-0.0078 -0.0054,-0.0128 0,-0.0049 0.0018,-0.0092 0.0052,-0.0127 0.0035,-0.0035 0.0078,-0.0052 0.013,-0.0052zm0.0147 0.0854l0 0.1314c0,0.0102 0.0007,0.0169 0.0023,0.0203 0.0015,0.0034 0.0037,0.0059 0.0066,0.0075 0.0029,0.0016 0.0083,0.0025 0.016,0.0025l0 0.0066 -0.0792 0 0 -0.0066c0.0079,0 0.0133,-0.0008 0.0159,-0.0023 0.0027,-0.0015 0.0049,-0.0041 0.0065,-0.0076 0.0016,-0.0035 0.0024,-0.0103 0.0024,-0.0204l0 -0.0632c0,-0.0176 -0.0005,-0.029 -0.0016,-0.0342 -0.0009,-0.0038 -0.0021,-0.0064 -0.004,-0.0078 -0.0018,-0.0015 -0.0042,-0.0023 -0.0072,-0.0023 -0.0033,0 -0.0074,0.0009 -0.0121,0.0027l-0.0025 -0.0066 0.0491 -0.0201 0.0078 0zm0.1503 0l0 0.0555 -0.0058 0c-0.0045,-0.0174 -0.0103,-0.0292 -0.0173,-0.0355 -0.007,-0.0063 -0.016,-0.0094 -0.0269,-0.0094 -0.0083,0 -0.015,0.0022 -0.0201,0.0066 -0.005,0.0044 -0.0076,0.0092 -0.0076,0.0146 0,0.0066 0.0019,0.0124 0.0056,0.0171 0.0037,0.0049 0.0111,0.01 0.0224,0.0155l0.026 0.0126c0.0241,0.0118 0.0361,0.0273 0.0361,0.0465 0,0.0148 -0.0056,0.0268 -0.0169,0.0359 -0.0112,0.0091 -0.0238,0.0136 -0.0377,0.0136 -0.01,0 -0.0214,-0.0018 -0.0342,-0.0052 -0.004,-0.0012 -0.0072,-0.0017 -0.0097,-0.0017 -0.0027,0 -0.0049,0.0015 -0.0064,0.0044l-0.0058 0 0 -0.0584 0.0058 0c0.0033,0.0167 0.0097,0.0293 0.0191,0.0377 0.0094,0.0085 0.0199,0.0127 0.0316,0.0127 0.0082,0 0.0148,-0.0024 0.02,-0.0072 0.0052,-0.0048 0.0078,-0.0106 0.0078,-0.0174 0,-0.0082 -0.0029,-0.015 -0.0087,-0.0206 -0.0058,-0.0056 -0.0173,-0.0126 -0.0346,-0.0211 -0.0172,-0.0085 -0.0285,-0.0162 -0.0338,-0.0231 -0.0053,-0.0068 -0.008,-0.0153 -0.008,-0.0257 0,-0.0134 0.0046,-0.0247 0.0138,-0.0338 0.0092,-0.0091 0.0211,-0.0136 0.0357,-0.0136 0.0064,0 0.0142,0.0014 0.0234,0.0042 0.006,0.0018 0.01,0.0027 0.012,0.0027 0.0019,0 0.0034,-0.0004 0.0045,-0.0013 0.001,-0.0009 0.0023,-0.0027 0.0037,-0.0057l0.0058 0z"/>
  </g>
 </g>
</svg>
